<svg xmlns="http://www.w3.org/2000/svg" version="1.1" xmlns:xlink="http://www.w3.org/1999/xlink" xmlns:svgjs="http://svgjs.dev/svgjs" width="1000" height="487" viewBox="0 0 1000 487"><g transform="matrix(1,0,0,1,-0.6060606060606233,0.605178858664118)"><svg viewBox="0 0 396 193" data-background-color="#528265" preserveAspectRatio="xMidYMid meet" height="487" width="1000" xmlns="http://www.w3.org/2000/svg" xmlns:xlink="http://www.w3.org/1999/xlink"><g id="tight-bounds" transform="matrix(1,0,0,1,0.2400000000000091,-0.23982320636160637)"><svg viewBox="0 0 395.52 193.47965519067444" height="193.47965519067444" width="395.52"><g><svg viewBox="0 0 397.4975999999999 194.44705346662778" height="193.47965519067444" width="395.52"><g><rect width="397.4975999999999" height="5.955656428942875" x="0" y="106.85955259325678" fill="#ffffff" opacity="1" stroke-width="0" stroke="transparent" fill-opacity="1" class="rect-o-0" data-fill-palette-color="primary" rx="1%" id="o-0" data-palette-color="#ffffff"></rect></g><g transform="matrix(1,0,0,1,0.9887999999999693,128.40593265817577)"><svg viewBox="0 0 395.52 66.04112080845199" height="66.04112080845199" width="395.52"><g id="textblocktransform"><svg viewBox="0 0 395.52 66.04112080845199" height="66.04112080845199" width="395.52" id="textblock"><g><svg viewBox="0 0 395.52 66.04112080845199" height="66.04112080845199" width="395.52"><g transform="matrix(1,0,0,1,0,0)"><svg width="395.52" viewBox="-0.6499999761581421 -35.5 217.67999267578125 36.349998474121094" height="66.04112080845199" data-palette-color="#ffffff"><g class="wordmark-text-0" data-fill-palette-color="primary" id="text-0"><path d="M20.8-34.65L29.2-34.65 19.55 0 9.35 0-0.65-34.65 8-34.65 14.6-6.4 20.8-34.65ZM31.75-34.65L53-34.65 52.15-28.8 39.95-28.8 39.95-20.5 50.6-20.5 50.6-14.75 39.95-14.75 39.95-5.9 53-5.9 53 0 31.75 0 31.75-34.65ZM58.05-34.65L66.25-34.65 66.25-6.5 79.75-6.5 78.9 0 58.05 0 58.05-34.65ZM97.69-35.5Q105.09-35.5 109.22-30.75 113.34-26 113.34-17.35L113.34-17.35Q113.34-11.7 111.47-7.6 109.59-3.5 106.07-1.33 102.54 0.85 97.69 0.85L97.69 0.85Q92.84 0.85 89.34-1.3 85.84-3.45 83.97-7.53 82.09-11.6 82.09-17.35L82.09-17.35Q82.09-22.95 83.97-27.05 85.84-31.15 89.34-33.33 92.84-35.5 97.69-35.5L97.69-35.5ZM97.69-29.5Q94.14-29.5 92.42-26.63 90.69-23.75 90.69-17.35L90.69-17.35Q90.69-10.95 92.44-8.05 94.19-5.15 97.69-5.15L97.69-5.15Q101.29-5.15 103.02-8.03 104.74-10.9 104.74-17.35L104.74-17.35Q104.74-23.8 102.99-26.65 101.24-29.5 97.69-29.5L97.69-29.5ZM129.39-35.5Q133.29-35.5 136.17-34.4 139.04-33.3 141.39-31.05L141.39-31.05 137.59-26.6Q134.04-29.5 129.99-29.5L129.99-29.5Q127.84-29.5 126.59-28.63 125.34-27.75 125.34-26.1L125.34-26.1Q125.34-24.95 125.89-24.23 126.44-23.5 127.84-22.85 129.24-22.2 132.04-21.3L132.04-21.3Q137.34-19.6 139.84-17.13 142.34-14.65 142.34-10.1L142.34-10.1Q142.34-6.85 140.69-4.38 139.04-1.9 135.94-0.53 132.84 0.85 128.59 0.85L128.59 0.85Q124.34 0.85 121.07-0.5 117.79-1.85 115.44-4.1L115.44-4.1 119.59-8.65Q121.59-6.95 123.72-6.1 125.84-5.25 128.34-5.25L128.34-5.25Q130.89-5.25 132.37-6.38 133.84-7.5 133.84-9.5L133.84-9.5Q133.84-10.8 133.29-11.68 132.74-12.55 131.39-13.25 130.04-13.95 127.49-14.75L127.49-14.75Q121.74-16.5 119.32-19.05 116.89-21.6 116.89-25.5L116.89-25.5Q116.89-28.5 118.49-30.78 120.09-33.05 122.94-34.27 125.79-35.5 129.39-35.5L129.39-35.5ZM146.84-34.65L155.04-34.65 155.04 0 146.84 0 146.84-34.65ZM175.64-35.5Q178.89-35.5 181.41-34.55 183.94-33.6 186.19-31.7L186.19-31.7 182.29-27.05Q180.74-28.25 179.24-28.85 177.74-29.45 176.04-29.45L176.04-29.45Q172.54-29.45 170.51-26.5 168.49-23.55 168.49-17.4L168.49-17.4Q168.49-11.35 170.51-8.43 172.54-5.5 176.14-5.5L176.14-5.5Q178.04-5.5 179.59-6.23 181.14-6.95 182.94-8.3L182.94-8.3 186.59-3.6Q184.64-1.65 181.86-0.4 179.09 0.85 175.74 0.85L175.74 0.85Q170.94 0.85 167.39-1.25 163.84-3.35 161.86-7.48 159.89-11.6 159.89-17.4L159.89-17.4Q159.89-23.05 161.91-27.15 163.94-31.25 167.51-33.38 171.09-35.5 175.64-35.5L175.64-35.5ZM217.03 0L208.83 0 208.83-14.85 198.43-14.85 198.43 0 190.23 0 190.23-34.65 198.43-34.65 198.43-21.25 208.83-21.25 208.83-34.65 217.03-34.65 217.03 0Z" fill="#ffffff" data-fill-palette-color="primary"></path></g></svg></g></svg></g></svg></g></svg></g><g transform="matrix(1,0,0,1,123.0700947919989,0)"><svg viewBox="0 0 151.35741041600212 91.26882895728066" height="91.26882895728066" width="151.35741041600212"><g><svg version="1.1" xmlns="http://www.w3.org/2000/svg" xmlns:xlink="http://www.w3.org/1999/xlink" x="0" y="0" viewBox="0.5989999771118164 19.74300765991211 99.99800109863281 60.29899978637695" enable-background="new 0.599 19.744 100 60.3" xml:space="preserve" width="151.35741041600212" height="91.26882895728066" class="icon-icon-0" data-fill-palette-color="accent" id="icon-0"><g fill="#ffffff" data-fill-palette-color="accent"><path d="M0.599 59.318c0 11.361 9.245 20.606 20.606 20.606 11.363 0 20.607-9.245 20.607-20.606 0-8.443-5.107-15.713-12.393-18.893l1.015-2.896 23.9 24.752c0.027 0.026 0.059 0.048 0.086 0.074 0.033 0.028 0.067 0.059 0.104 0.086 0.051 0.036 0.104 0.067 0.158 0.098 0.035 0.02 0.071 0.041 0.106 0.058 0.063 0.028 0.129 0.048 0.196 0.068 0.03 0.01 0.062 0.022 0.094 0.028 0.102 0.021 0.203 0.033 0.306 0.033 0.036 0 0.073-0.003 0.109-0.005l4.111-0.308c1.445 9.959 10.036 17.629 20.388 17.629 11.361 0 20.605-9.25 20.605-20.611 0-11.362-9.244-20.617-20.605-20.617-3.013 0-5.873 0.632-8.454 1.799l-5.558-10.337 2.006-6.9h3.294c0.807 0 1.459-1.01 1.459-1.816s-0.652-1.817-1.459-1.817H60.172c-0.807 0-1.46 1.01-1.46 1.817s0.653 1.816 1.46 1.816h4.772l-1.63 4.845H32.591l0.575-2.213c0.095-0.431-0.012-0.611-0.289-0.956-0.276-0.344-0.695-0.465-1.137-0.465h-9.127c-0.807 0-1.461 0.404-1.461 1.211 0 0.806 0.654 1.211 1.461 1.211h7.314l-0.578 2.927c-0.002 0.002-0.002 0.147-0.003 0.15l-0.914 4.255-1.767 5.075c-1.74-0.479-3.569-0.723-5.46-0.723C9.844 38.695 0.599 47.956 0.599 59.318zM62.458 31.855l-7.766 26.436L31.432 34.362l0.521-2.507H62.458zM63.009 62.167L80.1 60.898c0.492-0.035 0.935-0.32 1.172-0.754 0.239-0.434 0.239-0.958 0.006-1.393l-8.123-15.087c2.098-0.912 4.409-1.421 6.839-1.421 9.484 0 17.199 7.716 17.199 17.201 0 9.483-7.716 17.199-17.2 17.199C71.435 76.644 64.318 70.362 63.009 62.167zM77.64 58.155l-14.844 1.1c0.064-5.935 3.151-11.158 7.79-14.202L77.64 58.155zM57.467 59.657l7.389-25.33 4.224 7.721c-5.756 3.659-9.517 10.086-9.517 17.396 0 0.021 0 0.042 0 0.063L57.467 59.657zM4.006 59.318c0-9.484 7.715-17.2 17.199-17.2 1.496 0 2.949 0.193 4.332 0.554l-5.709 16.29c-0.266 0.76 0.133 1.592 0.895 1.858 0.16 0.058 0.323 0.083 0.482 0.083 0.603 0 1.167-0.377 1.378-0.978l5.706-16.275c5.96 2.705 10.118 8.707 10.118 15.667 0 9.484-7.716 17.2-17.2 17.2S4.006 68.803 4.006 59.318z" fill="#ffffff" data-fill-palette-color="accent"></path></g></svg></g></svg></g><g></g></svg></g><defs></defs></svg><rect width="395.52" height="193.47965519067444" fill="none" stroke="none" visibility="hidden"></rect></g></svg></g></svg>